<?xml version="1.0" encoding="utf-8"?>
<!-- Generator: Adobe Illustrator 22.1.0, SVG Export Plug-In . SVG Version: 6.00 Build 0)  -->
<svg version="1.1" xmlns="http://www.w3.org/2000/svg" xmlns:xlink="http://www.w3.org/1999/xlink" x="0px" y="0px"
	 viewBox="0 0 517 115" style="enable-background:new 0 0 517 115;" xml:space="preserve">
<style type="text/css">
	.st0{fill:#298235;}
	.st1{fill:#006837;}
	.st2{fill:#66CC66;}
	.st3{fill:#226089;}
	.st4{fill:#0071BC;}
	.st5{fill:#5E97BC;}
	.st6{fill:#003333;}
	.st7{display:none;}
	.st8{display:inline;}
	.st9{fill:#66B571;}
	.st10{fill:#0A3542;}
	.st11{font-family:'Brother-1816-Regular';}
	.st12{font-size:86.0629px;}
</style>
<g id="Layer_1">
	<g>
		<polygon class="st0" points="69.4,100 69.4,73.2 19.1,46.4 19.1,70.4 		"/>
		<polygon class="st1" points="69.4,100 42.8,59 56.2,66.2 69.4,73.2 		"/>
		<polygon class="st2" points="56.2,66.2 69.4,100 69.4,73.2 		"/>
		<polygon class="st3" points="42.8,55.1 69.4,40.6 69.4,14 20.3,43 		"/>
		<polygon class="st4" points="42.8,55.1 69.4,14 56.1,47.8 		"/>
		<polygon class="st5" points="56.1,47.8 69.4,14 69.4,40.6 		"/>
	</g>
	<g>
		<path class="st6" d="M114.9,74.7c5.9,0,10.4-2.2,13.1-3.8v7.5c-2.6,1.4-6.8,3.4-13.5,3.4c-13.3,0-22.5-9.6-22.5-22.5
			c0-13,9.2-22.5,22.5-22.5c6.6,0,10.7,2,13.3,3.4v7.6c-3-1.9-7.2-3.8-12.8-3.8c-8.6,0-14.7,6.4-14.7,15.4
			C100.1,68.4,106.2,74.7,114.9,74.7z"/>
		<path class="st6" d="M138.5,18.9h8v49.3c0,4.6,1.5,6.5,5,6.5c1.7,0,3.3-0.3,3.8-0.5v6.9c-0.5,0.2-2.7,0.8-5.8,0.8
			c-6.4,0-11-3.4-11-12V18.9z"/>
		<path class="st6" d="M202.1,56.8c0,1.7-0.2,3.4-0.2,4.2h-32v0.1c0.3,8.4,5.9,13.8,15,13.8c5.9,0,12-1.7,15.6-4v7.3
			c-3.4,1.9-9.1,3.7-16.1,3.7c-13.6,0-22.8-9.2-22.8-22.5c0-13,9.2-22.5,21.1-22.5C195.3,36.8,202.1,46.2,202.1,56.8z M182.6,43.5
			c-7.4,0-11.9,5.7-12.6,11.9h24.2C194.3,49.2,190.3,43.5,182.6,43.5z"/>
		<path class="st6" d="M213.5,40c2.4-1.3,8.1-3.2,15.1-3.2c12.1,0,18.1,5.9,18.1,16.6v27.5h-7.4l-0.1-5.1c-0.1-2.1,0.3-3.4,0.3-3.4
			h-0.2c-0.5,1.2-5.2,9.6-15,9.6c-7.9,0-13.6-4.7-13.6-12.7c0-10.5,10.1-15.7,28.1-13.3v-2.2c0-7.5-4.5-10.1-11.3-10.1
			c-5.9,0-11.4,2.1-14,3.6V40z M238.6,61.6c-14-2.2-20,1.5-20,7.4c0,3.8,2.8,6.5,7.1,6.5C233,75.4,238.6,68.3,238.6,61.6z"/>
		<path class="st6" d="M260.2,37.8h7.5l0.1,6c0.1,1.6-0.2,2.9-0.1,3.2h0.1c2.5-6.1,7.1-10.2,13.3-10.2c1.2,0,2.2,0.2,2.6,0.3v7.7
			c-0.3-0.1-1.1-0.3-2.2-0.3c-8.3,0-13.2,9.2-13.2,17.6v18.8h-8V37.8z"/>
		<path class="st6" d="M302.9,62.4c-7.7-2.5-13-5.8-13-13.5c0-7.1,6.5-12.1,15.4-12.1c4.6,0,9.2,1.2,12.1,2.6v7.2
			c-3.1-1.6-7.4-3-11.3-3c-4.9,0-8.8,1.7-8.8,5.6c0,3.4,3,5.1,8.9,7c9.1,3,13.6,6.4,13.6,13.6c0,7.8-6.4,12.1-15.7,12.1
			c-5.6,0-10.6-1.2-14-2.8v-7.3c4.2,2.1,9.7,3.5,13.8,3.5c4.5,0,8.5-1.5,8.5-5.6C312.5,66,309.3,64.5,302.9,62.4z"/>
		<path class="st6" d="M333.1,37.8V24.9h7.8v12.9h13v6.5h-13v22.3c0,6.1,2.8,8.2,6.4,8.2c2.7,0,5.7-0.8,8.1-1.9v7
			c-1.9,1-5.4,2-9.6,2c-6.2,0-12.7-3.2-12.7-12.8V44.4H326v-6.5H333.1z"/>
		<path class="st6" d="M401.2,56.8c0,1.7-0.2,3.4-0.2,4.2h-32v0.1c0.3,8.4,5.9,13.8,15,13.8c5.9,0,12-1.7,15.6-4v7.3
			c-3.4,1.9-9.1,3.7-16.1,3.7c-13.6,0-22.8-9.2-22.8-22.5c0-13,9.2-22.5,21.1-22.5C394.4,36.8,401.2,46.2,401.2,56.8z M381.7,43.5
			c-7.4,0-11.9,5.7-12.6,11.9h24.2C393.4,49.2,389.3,43.5,381.7,43.5z"/>
		<path class="st6" d="M412.5,40c2.4-1.3,8.1-3.2,15.1-3.2c12.1,0,18.1,5.9,18.1,16.6v27.5h-7.4l-0.1-5.1c-0.1-2.1,0.3-3.4,0.3-3.4
			h-0.2c-0.5,1.2-5.2,9.6-15,9.6c-7.9,0-13.6-4.7-13.6-12.7c0-10.5,10.1-15.7,28.1-13.3v-2.2c0-7.5-4.5-10.1-11.3-10.1
			c-5.9,0-11.4,2.1-14,3.6V40z M437.7,61.6c-14-2.2-20,1.5-20,7.4c0,3.8,2.8,6.5,7.1,6.5C432.1,75.4,437.7,68.3,437.7,61.6z"/>
		<path class="st6" d="M499,80.8h-7.4l-0.2-5.1c0-1.9,0.3-3.2,0.3-3.2h-0.2c-2.2,4.8-8.3,9.3-15.2,9.3c-11.4,0-20-9.2-20-22.5
			c0-13.5,8.6-22.5,19.8-22.5c7,0,12.7,3.8,15,7.8h0.2c0,0-0.3-1.3-0.3-3.5V18.9h8V80.8z M464,59.3c0,9,5.3,15.6,13.3,15.6
			c6.5,0,13.5-4.8,13.5-15.6c0-10.8-7.1-15.6-13.5-15.6C469.3,43.7,464,50.2,464,59.3z"/>
	</g>
</g>
<g id="Layer_2" class="st7">
	<g class="st8">
		<g>
			<polygon class="st0" points="455.6,100.8 455.6,74 505.8,47.2 505.8,71.2 			"/>
			<polygon class="st1" points="455.6,100.8 482.1,59.8 468.7,67 455.6,74 			"/>
			<polygon class="st9" points="468.7,67 455.6,100.8 455.6,74 			"/>
			<polygon class="st3" points="482.1,55.9 455.6,41.4 455.6,14.8 504.6,43.8 			"/>
			<polygon class="st4" points="482.1,55.9 455.6,14.8 468.9,48.6 			"/>
			<polygon class="st5" points="468.9,48.6 455.6,14.8 455.6,41.4 			"/>
		</g>
		<text transform="matrix(1 0 0 1 20.196 80.8394)" class="st10 st11 st12">clearstead</text>
	</g>
</g>
</svg>
