<svg id="raingardens" xmlns="http://www.w3.org/2000/svg" viewBox="0 0 107.08 107"><defs><style>.cls-1{fill:#b6c7b6;}.cls-2,.cls-4{fill:none;}.cls-2{stroke:#b6c7b6;stroke-width:3px;}.cls-2,.cls-3,.cls-4{stroke-miterlimit:10;}.cls-3,.cls-5{fill:#fff;}.cls-3,.cls-4,.cls-5{stroke:#000;stroke-width:1.5px;}.cls-4,.cls-5{stroke-linecap:round;}.cls-5{stroke-linejoin:round;}.cls-6{fill:#87a385;}</style></defs><title>raingardens</title><path class="cls-1" d="M75.47,50.67a16.24,16.24,0,0,0,2.35-8.39,16.45,16.45,0,0,0-11.39-15.6,9.84,9.84,0,1,0-19.21-3A9.92,9.92,0,0,0,47.81,27,16.46,16.46,0,0,0,37.38,42.28a16.24,16.24,0,0,0,2.35,8.39,16.38,16.38,0,0,0,7.49,31H68a16.38,16.38,0,0,0,7.49-30.95Z"/><line class="cls-2" x1="55.6" y1="50.69" x2="55.6" y2="89.57"/><path class="cls-1" d="M23.31,37.26s1.3,10.28.93,13.15c-.73,5.78-2.5,11.93-2.6,15.2s.11,6.15,0,9.48c-.06,1.65.65,2.83-1.12,2.73s-1.11-.62-1.28-2.73a82.83,82.83,0,0,1,0-9.58c.2-3.38,3.13-14,3.61-17.15C23.16,46.32,23.31,37.26,23.31,37.26Z"/><path class="cls-1" d="M28.16,41.18s1.3,9.28.93,11.87c-.73,5.23-2.5,10.79-2.6,13.74s.11,5.56,0,8.56c-.07,1.5.65,2.56-1.13,2.47s-1.1-.56-1.27-2.47a67.55,67.55,0,0,1,0-8.65c.2-3.05,3.12-12.65,3.6-15.5C28,49.36,28.16,41.18,28.16,41.18Z"/><path class="cls-1" d="M32.82,39.5s1.3,9.71.94,12.42C33,57.38,31.25,63.2,31.15,66.28s.11,5.82,0,9c-.07,1.56.64,2.67-1.13,2.58s-1.11-.58-1.28-2.58a73.93,73.93,0,0,1,0-9C29,63,31.88,53,32.36,50,32.67,48.06,32.82,39.5,32.82,39.5Z"/><path class="cls-1" d="M37.67,37.26s1.3,10.28.94,13.15c-.74,5.78-2.51,11.93-2.61,15.2s.11,6.15,0,9.48c-.06,1.65.65,2.83-1.12,2.73s-1.11-.62-1.28-2.73a82.83,82.83,0,0,1,0-9.58c.2-3.38,3.13-14,3.61-17.15C37.52,46.32,37.67,37.26,37.67,37.26Z"/><path class="cls-1" d="M42.43,41.18s1.3,9.28.93,11.87c-.73,5.23-2.51,10.79-2.6,13.74s.11,5.56,0,8.56c-.07,1.5.64,2.56-1.13,2.47s-1.1-.56-1.28-2.47a71.44,71.44,0,0,1,0-8.65c.21-3.05,3.13-12.65,3.61-15.5C42.27,49.36,42.43,41.18,42.43,41.18Z"/><path class="cls-1" d="M47.18,39.5s1.3,9.71.94,12.42c-.74,5.46-2.51,11.28-2.61,14.36s.11,5.82,0,9c-.07,1.56.64,2.67-1.13,2.58s-1.1-.58-1.28-2.58a73.93,73.93,0,0,1,0-9C43.31,63,46.24,53,46.72,50,47,48.06,47.18,39.5,47.18,39.5Z"/><path class="cls-1" d="M52.41,37.26s1.29,10.28.93,13.15c-.73,5.78-2.51,11.93-2.6,15.2s.11,6.15,0,9.48c-.07,1.65.64,2.83-1.13,2.73s-1.1-.62-1.28-2.73a87.61,87.61,0,0,1,0-9.58c.2-3.38,3.13-14,3.61-17.15C52.25,46.32,52.41,37.26,52.41,37.26Z"/><path class="cls-1" d="M57.26,41.18s1.29,9.28.93,11.87c-.74,5.23-2.51,10.79-2.6,13.74s.11,5.56,0,8.56c-.07,1.5.64,2.56-1.13,2.47s-1.1-.56-1.28-2.47a71.44,71.44,0,0,1,0-8.65c.2-3.05,3.13-12.65,3.61-15.5C57.1,49.36,57.26,41.18,57.26,41.18Z"/><path class="cls-1" d="M61.83,39.5s1.29,9.71.93,12.42c-.74,5.46-2.51,11.28-2.6,14.36s.11,5.82,0,9c-.07,1.56.64,2.67-1.13,2.58s-1.1-.58-1.28-2.58a73.93,73.93,0,0,1,0-9C58,63,60.88,53,61.36,50,61.67,48.06,61.83,39.5,61.83,39.5Z"/><path class="cls-1" d="M18.46,39.22s1.3,9.78.94,12.51c-.74,5.51-2.51,11.36-2.61,14.47s.11,5.85,0,9c-.06,1.58.65,2.69-1.12,2.6s-1.11-.59-1.28-2.6a74.92,74.92,0,0,1,0-9.11c.2-3.22,3.13-13.34,3.61-16.33C18.31,47.84,18.46,39.22,18.46,39.22Z"/><path class="cls-3" d="M71.55,50.35a15.85,15.85,0,0,0,2.29-8.18A16,16,0,0,0,62.75,27a9.59,9.59,0,1,0-18.13.35,15.87,15.87,0,0,0-7.87,23A15.95,15.95,0,0,0,44,80.49H64.26a15.95,15.95,0,0,0,7.29-30.14Z"/><path d="M25.44,37.22s1.29,10.28.93,13.15c-.73,5.78-2.51,11.93-2.6,15.2s.11,6.15,0,9.48c-.07,1.65.64,2.83-1.13,2.73s-1.1-.62-1.28-2.73a87.61,87.61,0,0,1,0-9.58c.21-3.38,3.13-14,3.61-17.16C25.28,46.28,25.44,37.22,25.44,37.22Z"/><path d="M30.29,41.13s1.29,9.29.93,11.88c-.74,5.23-2.51,10.79-2.6,13.74s.11,5.56,0,8.56c-.07,1.5.64,2.56-1.13,2.47s-1.1-.56-1.28-2.47a71.44,71.44,0,0,1,0-8.65c.2-3,3.13-12.66,3.61-15.5C30.13,49.32,30.29,41.13,30.29,41.13Z"/><path d="M35,39.46s1.3,9.71.93,12.42c-.73,5.46-2.51,11.28-2.6,14.36s.11,5.81,0,9c-.07,1.56.64,2.67-1.13,2.58s-1.1-.59-1.27-2.58a75.73,75.73,0,0,1,0-9C31.08,63,34,52.91,34.48,49.94,34.79,48,35,39.46,35,39.46Z"/><path d="M39.8,37.22s1.3,10.28.93,13.15c-.73,5.78-2.51,11.93-2.6,15.2s.11,6.15,0,9.48c-.07,1.65.64,2.83-1.13,2.73s-1.1-.62-1.28-2.73a87.61,87.61,0,0,1,0-9.58c.21-3.38,3.13-14,3.61-17.16C39.64,46.28,39.8,37.22,39.8,37.22Z"/><path d="M44.55,41.13s1.3,9.29.94,11.88C44.75,58.24,43,63.8,42.88,66.75s.11,5.56,0,8.56c-.07,1.5.64,2.56-1.13,2.47s-1.11-.56-1.28-2.47a67.55,67.55,0,0,1,0-8.65c.2-3,3.13-12.66,3.61-15.5C44.4,49.32,44.55,41.13,44.55,41.13Z"/><path d="M49.31,39.46s1.3,9.71.93,12.42c-.73,5.46-2.51,11.28-2.6,14.36s.11,5.81,0,9c-.07,1.56.65,2.67-1.13,2.58s-1.1-.59-1.27-2.58a75.73,75.73,0,0,1,0-9c.21-3.19,3.13-13.24,3.61-16.21C49.15,48,49.31,39.46,49.31,39.46Z"/><path d="M54.53,37.22s1.3,10.28.93,13.15c-.73,5.78-2.5,11.93-2.6,15.2s.11,6.15,0,9.48c-.06,1.65.65,2.83-1.12,2.73s-1.11-.62-1.28-2.73a82.83,82.83,0,0,1,0-9.58c.2-3.38,3.13-14,3.61-17.16C54.38,46.28,54.53,37.22,54.53,37.22Z"/><path d="M59.38,41.13s1.3,9.29.93,11.88c-.73,5.23-2.5,10.79-2.6,13.74s.11,5.56,0,8.56c-.07,1.5.65,2.56-1.12,2.47s-1.11-.56-1.28-2.47a67.55,67.55,0,0,1,0-8.65c.2-3,3.13-12.66,3.61-15.5C59.23,49.32,59.38,41.13,59.38,41.13Z"/><path d="M64,39.46s1.3,9.71.93,12.42c-.73,5.46-2.51,11.28-2.6,14.36s.11,5.81,0,9c-.07,1.56.65,2.67-1.13,2.58s-1.1-.59-1.27-2.58a73.93,73.93,0,0,1,0-9c.2-3.19,3.12-13.24,3.6-16.21C63.79,48,64,39.46,64,39.46Z"/><path d="M20.59,39.18s1.3,9.78.93,12.51c-.73,5.5-2.51,11.36-2.6,14.47s.11,5.85,0,9c-.07,1.58.64,2.69-1.13,2.6s-1.1-.59-1.28-2.6a79.24,79.24,0,0,1,0-9.11c.21-3.22,3.13-13.34,3.61-16.33C20.43,47.8,20.59,39.18,20.59,39.18Z"/><path class="cls-3" d="M71.55,50.35a15.85,15.85,0,0,0,2.29-8.18A16,16,0,0,0,62.75,27a9.59,9.59,0,1,0-18.13.35,15.87,15.87,0,0,0-7.87,23A15.95,15.95,0,0,0,44,80.49H64.26a15.95,15.95,0,0,0,7.29-30.14Z"/><line class="cls-4" x1="53.62" y1="50.69" x2="53.62" y2="89"/><line class="cls-4" x1="54.15" y1="62.93" x2="61.07" y2="57.07"/><line class="cls-4" x1="53.62" y1="75.34" x2="44.04" y2="66.65"/><path class="cls-5" d="M90.79,74.19c0,5.47-4.18,9.91-9.33,9.91s-9.33-4.44-9.33-9.91,9.33-17.84,9.33-17.84S90.79,68.72,90.79,74.19Z"/><path class="cls-6" d="M81.35,82.82a7.46,7.46,0,0,0,3.76-1,13.68,13.68,0,0,1-6.44-2.06A12.25,12.25,0,0,1,73.5,74.1c0,.12,0,.25,0,.36A8.12,8.12,0,0,0,81.35,82.82Z"/></svg>