<svg xmlns="http://www.w3.org/2000/svg" viewBox="0 0 107.13 107"><defs><style>.cls-1{fill:#b6c7b6;}.cls-2,.cls-5,.cls-9{fill:none;}.cls-2{stroke:#b6c7b6;stroke-width:3px;}.cls-2,.cls-3,.cls-4,.cls-5,.cls-7,.cls-8,.cls-9{stroke-miterlimit:10;}.cls-3{fill:#ccc;stroke:#ccc;}.cls-3,.cls-5,.cls-9{stroke-linecap:round;}.cls-3,.cls-8,.cls-9{stroke-width:1.5px;}.cls-4,.cls-7,.cls-8{fill:#fff;}.cls-4,.cls-5,.cls-8,.cls-9{stroke:#000;}.cls-4,.cls-5,.cls-7{stroke-width:1.3px;}.cls-6{fill:#87a385;}.cls-7{stroke:#fff;}</style></defs><title>streets</title><g id="streets"><path class="cls-1" d="M83.57,42.61a7.77,7.77,0,0,0,1.13-4,7.9,7.9,0,0,0-5.47-7.49,4.49,4.49,0,0,0,.23-1.42,4.72,4.72,0,1,0-9.44,0,4.66,4.66,0,0,0,.28,1.59,7.91,7.91,0,0,0-5,7.32,7.77,7.77,0,0,0,1.13,4A7.85,7.85,0,0,0,70,57.45H80a7.85,7.85,0,0,0,3.59-14.84Z"/><line class="cls-2" x1="73.94" y1="42.72" x2="73.94" y2="59.93"/><line class="cls-3" x1="74.19" y1="48.36" x2="77.38" y2="45.67"/><line class="cls-3" x1="73.94" y1="52.61" x2="69.53" y2="48.61"/><path class="cls-4" d="M81.32,42.51a7.22,7.22,0,0,0,1.05-3.73,7.32,7.32,0,0,0-5.07-6.94,4.16,4.16,0,0,0,.21-1.33,4.38,4.38,0,0,0-8.75,0A4.57,4.57,0,0,0,69,32a7.3,7.3,0,0,0-4.63,6.78,7.21,7.21,0,0,0,1,3.73,7.28,7.28,0,0,0,3.33,13.76H78a7.28,7.28,0,0,0,3.33-13.76Z"/><line class="cls-5" x1="73.13" y1="42.06" x2="73.13" y2="60.03"/><line class="cls-5" x1="73.38" y1="47.8" x2="76.62" y2="45.06"/><line class="cls-5" x1="73.13" y1="52.13" x2="68.64" y2="48.05"/><rect class="cls-6" x="44.7" y="60.75" width="45.88" height="15.89"/><line class="cls-4" x1="44.7" y1="60.22" x2="90.59" y2="60.22"/><line class="cls-4" x1="44.7" y1="76.64" x2="90.66" y2="76.64"/><line class="cls-7" x1="44.7" y1="68.43" x2="49.45" y2="68.43"/><line class="cls-7" x1="52.93" y1="68.45" x2="57.68" y2="68.45"/><line class="cls-7" x1="61.15" y1="68.45" x2="65.9" y2="68.45"/><line class="cls-7" x1="69.37" y1="68.45" x2="74.12" y2="68.45"/><line class="cls-7" x1="77.61" y1="68.43" x2="82.36" y2="68.43"/><line class="cls-7" x1="85.84" y1="68.43" x2="90.59" y2="68.43"/><path class="cls-1" d="M55,53.89a14.6,14.6,0,0,0,2.11-7.55,14.77,14.77,0,0,0-10.24-14,8.84,8.84,0,1,0-17.27-2.68,9.05,9.05,0,0,0,.53,3,14.77,14.77,0,0,0-9.37,13.7,14.6,14.6,0,0,0,2.11,7.55,14.72,14.72,0,0,0,6.73,27.82H48.24A14.72,14.72,0,0,0,55,53.89Z"/><line class="cls-2" x1="37.42" y1="51.2" x2="37.42" y2="87.96"/><line class="cls-3" x1="36.91" y1="62.5" x2="43.29" y2="57.1"/><line class="cls-3" x1="36.42" y1="73.02" x2="27.57" y2="64.99"/><path class="cls-8" d="M51.59,53a14.22,14.22,0,0,0,2.06-7.36A14.4,14.4,0,0,0,43.67,32a8.61,8.61,0,1,0-16.82-2.61,8.53,8.53,0,0,0,.51,2.92,14.39,14.39,0,0,0-9.13,13.35A14.22,14.22,0,0,0,20.29,53a14.35,14.35,0,0,0,6.56,27.11H45A14.35,14.35,0,0,0,51.59,53Z"/><line class="cls-9" x1="35.45" y1="52.14" x2="35.45" y2="87.53"/><line class="cls-9" x1="35.94" y1="61.44" x2="42.33" y2="56.04"/><line class="cls-9" x1="35.45" y1="71.96" x2="26.6" y2="63.93"/></g></svg>